<?xml version="1.0" encoding="UTF-8"?> <svg xmlns="http://www.w3.org/2000/svg" id="Layer_1" data-name="Layer 1" viewBox="0 0 317.23 194.32"><defs><style>.cls-1{fill:#fff;}</style></defs><title>civplayers-logo-white</title><g id="Frame_Lettering" data-name="Frame+Lettering"><path class="cls-1" d="M108.19,89.33l1-.77,0-10.19-1-.75-6.53.07-1,.77,0,10.31,1,.73Z"></path><path class="cls-1" d="M164.85,94.64l.81.58,5,0,.8-.56Q169.8,88.35,168.14,82,166.51,88.33,164.85,94.64Z"></path><path class="cls-1" d="M316.11,69l-8.47-7.74a3.44,3.44,0,0,0-2.32-.9H249.57L221.49,11.74A23.48,23.48,0,0,0,201.16,0H116.07A23.46,23.46,0,0,0,95.74,11.74L67.66,60.38H12.43a3.43,3.43,0,0,0-2.25.84L1.19,69A3.43,3.43,0,0,0,0,71.61v49.51a3.43,3.43,0,0,0,1.22,2.62l8.71,7.33a3.39,3.39,0,0,0,2.77.76c5.25-.87,23.52-3.77,50-6.41l33,57.16a23.46,23.46,0,0,0,20.33,11.74h85.09a23.48,23.48,0,0,0,20.33-11.74l33-57.18c26.71,2.63,45.19,5.54,50.55,6.42a3.4,3.4,0,0,0,2.83-.82l8.19-7.26a3.42,3.42,0,0,0,1.16-2.57V71.55A3.44,3.44,0,0,0,316.11,69ZM107,18.21a10.55,10.55,0,0,1,9.12-5.27h85.09a10.57,10.57,0,0,1,9.12,5.27l24.35,42.17H82.6Zm94,90.37c.32.86.63,1.73,1,2.59q-5.22-.23-10.46-.41l1.08-2.49,0-11.44Q187.24,85.15,182,73.68l-2.49-2.93h12.58l-1.21,1.58q2.88,7.33,5.76,14.76,2.85-7.32,5.68-14.74c-.4-.54-.81-1.07-1.21-1.6h12.58l-2.48,3q-5.15,11.79-10.3,23.29Zm-27.6-5.87-1-.79q-4.22,0-8.43-.06l-1,.77-1.89,6,.74,1.56c-3.58,0-7.15,0-10.73,0,.56-.89,1.12-1.78,1.69-2.66Q158,90.27,163.22,73l-.94-2.28h11.64c-.31.76-.62,1.53-.94,2.29q5.27,17.31,10.57,34.81l1.69,2.72q-5.37-.15-10.73-.24c.24-.52.49-1,.74-1.55C174.61,106.76,174,104.73,173.35,102.71Zm-50.9-32H133c-.34.85-.68,1.71-1,2.57l-.06,29.88,1,.71q6.54-.15,13.08-.23l3.51-.76L148,110.27q-12.82.15-25.64.64c.36-.86.72-1.71,1.09-2.57l.09-35C123.16,72.47,122.8,71.61,122.45,70.75Zm-20.81,41.19c-3.53.21-7.06.45-10.58.7.36-.91.72-1.81,1.09-2.72q.06-18.24.14-36.48c-.35-.89-.71-1.79-1.07-2.69h22.35L117.86,74q0,9.21,0,18.42c-1.44,1.17-2.88,2.34-4.32,3.53q-5.94.17-11.86.4l-1,.85q0,6.08,0,12.16Zm-75-33.18L20,78.92c-.34.34-.68.67-1,1l0,31.28,1,.86,6.64-.79c.31-.36.62-.72.94-1.07v-3.14c-.37-1-.75-2-1.13-3q5.32-.51,10.67-1L36,106.22c0,2.69,0,5.37,0,8.06-1.41,1.48-2.83,3-4.24,4.49q-8.47,1.16-16.94,2.45c-1.43-1.17-2.85-2.36-4.28-3.57V74.92c1.43-1.41,2.87-2.8,4.3-4.17h17l4.23,3.87,0,8c.35,1,.71,2,1.07,3q-5.35.21-10.69.45l1.15-3.12V79.7Zm25.9,37.43c-3.52.4-7,.81-10.54,1.25l1.08-3.07.12-40.62c-.35-1-.71-2-1.07-3H52.74c-.36,1-.73,2-1.09,2.94l-.14,39.75C51.87,114.36,52.22,115.28,52.58,116.19Zm5.25-41.07c-.64-1.45-1.29-2.91-1.93-4.37H66.46c-.2.56-.4,1.12-.61,1.68q3,13.78,6,27.2Q75,85.83,78.1,72.39c-.25-.55-.49-1.1-.74-1.64h10.7l-2,4.06q-4.55,17.86-9.1,36.35c.27.84.53,1.69.8,2.53q-5.87.51-11.71,1.08l.82-2.74Q62.34,94,57.83,75.12Zm152.45,101a10.57,10.57,0,0,1-9.12,5.27H116.07a10.55,10.55,0,0,1-9.12-5.27l-30-52c23.29-2,51.33-3.56,81.69-3.56s58.35,1.57,81.7,3.54Zm32.32-62.22Q229.81,112.77,217,112l1.07-2.6q-.06-18-.13-36c-.37-.87-.73-1.74-1.09-2.61h25.57c.53,2.65,1.05,5.3,1.58,8l-3.5-.9-13.12-.18-1,.82,0,8.65,1,.85,4.3.13,3.3-.78c0,3,0,5.93,0,8.89l-3.31-1L227.44,95l-1,.73,0,9,1,.89q6.56.39,13.13.86l3.49-.59C243.61,108.56,243.1,111.23,242.6,113.89Zm21.92,2.2c.24-.91.48-1.82.73-2.73q-1.85-7-3.68-13.94l-.68-.76-2.75-.18-1,.81q0,6.6.05,13.19c.36,1,.73,2,1.09,2.93q-5.28-.55-10.56-1c.35-.89.71-1.77,1.06-2.66l-.15-38.13c-.36-.95-.72-1.89-1.09-2.82h22.34q2.16,1.88,4.32,3.79l.07,21.16L270,99.3q1.88,7.31,3.74,14.75c.45,1.08.9,2.18,1.35,3.28C271.55,116.89,268,116.48,264.52,116.09ZM297.81,80l-1-.94-6.52-.16-1,.87c0,3.4,0,6.8,0,10.2l1,1q5.91.34,11.82.72,2.11,2.22,4.23,4.5v21.25c-1.4,1.21-2.81,2.4-4.21,3.58q-8.47-1.29-16.95-2.43-2.22-2.28-4.44-4.51l0-8c-.31-1-.63-2-1-3.07q5.31.47,10.61,1c-.36,1-.71,2-1.07,3,0,1.06,0,2.12,0,3.19l1,1,6.5.77,1-.79c0-3.49,0-7,0-10.46l-1-1.06q-5.83-.51-11.68-1-2.22-2.19-4.44-4.32l-.05-19.79c1.48-1.27,3-2.56,4.43-3.86h17c1.42,1.37,2.83,2.75,4.24,4.16,0,2.9,0,5.81,0,8.71l1.14,3.28q-5.34-.27-10.68-.51c.33-1,.67-2.06,1-3.09Z"></path><path class="cls-1" d="M264.65,78.39l-6.59-.12-1,.8c0,3.71,0,7.43.05,11.14l1,.87,6.59.32,1-.78q0-5.69,0-11.37Z"></path></g><g id="EST.2002"><path class="cls-1" d="M135.09,170.75l.21-.63v-8.58l-.21-.62H140l.3,1.81-.67-.19h-2.53l-.19.19v2l.19.2h.83l.63-.21v2.06l-.63-.21h-.83l-.19.18v2.12l.19.2h2.53l.67-.2-.3,1.85Z"></path><path class="cls-1" d="M146.29,164h-2.06l.19-.62v-.64l-.19-.19H143l-.19.19v2.07l.19.19h2.28l.82.82v4.1l-.82.81H142l-.86-.81v-1.66l-.18-.62H143l-.21.62v.65l.19.18h1.26l.19-.18v-2.07l-.19-.2H142l-.86-.82v-4.12l.86-.8h3.27l.82.8v1.68Z"></path><path class="cls-1" d="M152.77,162.76l-.7-.19h-1.23l-.18.19v7.37l.21.62h-2.06l.21-.62v-7.37l-.2-.19h-1.25l-.68.19.3-1.84h5.27Z"></path><path class="cls-1" d="M154.17,168.48l.57.56v1.14l-.57.57H153l-.57-.57V169l.57-.56Z"></path><path class="cls-1" d="M164,168.27v2.48H159v-4.91l.82-.82h2.27l.19-.19v-2.07l-.19-.19h-1.28l-.19.19v.64l.23.62h-2.06l.21-.62v-1.65l.82-.83h3.27l.83.83v4.09l-.83.82h-2.28l-.19.2v2l.19.2h1.28l.19-.2v-.63l-.21-.62h2.06Z"></path><path class="cls-1" d="M170.2,161.72v8.22l-.82.81h-3.27l-.83-.81v-8.22l.83-.8h3.27Zm-1.85.85h-1.24l-.2.19v6.17l.2.18h1.24l.19-.18v-6.17Z"></path><path class="cls-1" d="M176.33,161.72v8.22l-.81.81h-3.28l-.82-.81v-8.22l.82-.8h3.28Zm-1.85.85h-1.24l-.19.19v6.17l.19.18h1.24l.2-.18v-6.17Z"></path><path class="cls-1" d="M182.58,168.27v2.48h-4.91v-4.91l.81-.82h2.28l.18-.19v-2.07l-.18-.19h-1.28l-.2.19v.64l.24.62h-2.06l.21-.62v-1.65l.81-.83h3.27l.83.83v4.09l-.83.82h-2.27l-.2.2v2l.2.2h1.28l.18-.2v-.63l-.21-.62h2.06Z"></path></g><g id="League"><path class="cls-1" d="M110.79,130.58a.83.83,0,0,1,1,.88q.4,7.24.82,14.51a.86.86,0,0,0,1,.88c2.32-.13,4.65-.25,7-.36a.82.82,0,0,1,1,.89l.16,3.48a.82.82,0,0,1-.89,1q-6.14.28-12.27.66a.85.85,0,0,1-1-.87q-.61-9.92-1.25-19.84a.86.86,0,0,1,.9-1Z"></path><path class="cls-1" d="M137.11,129.48a.84.84,0,0,1,1,.91l.09,3.48a.84.84,0,0,1-.93.95q-3.84.1-7.67.24a.84.84,0,0,0-.92,1l0,1a.86.86,0,0,0,1,.89l4.89-.16a.84.84,0,0,1,1,.91c0,1.16.06,2.32.1,3.48a.84.84,0,0,1-.92,1l-4.87.16a.84.84,0,0,0-.9,1l0,1a.86.86,0,0,0,1,.9c2.53-.09,5-.17,7.58-.23a.82.82,0,0,1,1,.9l.08,3.48a.82.82,0,0,1-.9,1q-6.54.17-13.06.44a.84.84,0,0,1-1-.89q-.44-9.93-.86-19.86a.84.84,0,0,1,.92-1Q130.4,129.66,137.11,129.48Z"></path><path class="cls-1" d="M156.08,149.89c0,.68-.31,1.05-.93,1.06l-3.49,0a.83.83,0,0,1-.94-.92l0-2.7a.84.84,0,0,0-.95-.93l-2.69,0a.84.84,0,0,0-.93.94l.05,2.71a.82.82,0,0,1-.92.94l-3.48.07c-.59,0-.94-.35-1-1q-.15-6.59-.29-13.16c-.09-3.91.45-8.11,7.65-8.21s7.84,4.1,7.85,8Q156,143.31,156.08,149.89Zm-5.49-13.13c0-1.49-.25-2.24-2.34-2.21s-2.3.77-2.28,2.26l.05,3.39a.86.86,0,0,0,1,.92l2.71,0a.86.86,0,0,0,.93-1Z"></path><path class="cls-1" d="M158.72,136.19c0-2.05.43-7.57,8-7.52,6.72.08,7.75,4.4,7.86,6.82a.91.91,0,0,1-.84,1l-3.59.72c-.63.12-1-.16-1-.82-.11-1.49-.64-2.37-2.45-2.38-2.35,0-2.51,1.44-2.53,3.83l0,4.47c0,2.39.14,3.85,2.45,3.87s2.49-1.43,2.51-2.95l-1.82,0a.85.85,0,0,1-.94-.94l0-2.48a.83.83,0,0,1,1-.92c2.1,0,4.21,0,6.31.09a.83.83,0,0,1,.93.94l-.08,4.2c0,2.05-.58,7.51-7.94,7.43s-7.8-5.52-7.8-7.58Z"></path><path class="cls-1" d="M181.89,129.51a.84.84,0,0,1,.93,1q-.18,6.09-.35,12.17c-.07,2.39.05,3.85,2.36,3.92s2.52-1.37,2.6-3.77l.42-12.16a.85.85,0,0,1,1-.9l3.58.13a.84.84,0,0,1,.92,1l-.57,13.81c-.09,2.06-.75,7.51-8.11,7.26s-7.67-5.69-7.63-7.75l.3-13.82a.86.86,0,0,1,1-.91Z"></path><path class="cls-1" d="M210.72,130.79a.84.84,0,0,1,.9,1l-.22,3.47a.86.86,0,0,1-1,.88q-3.82-.24-7.67-.44a.84.84,0,0,0-1,.88l-.06,1a.86.86,0,0,0,.9,1l4.9.27a.83.83,0,0,1,.89,1l-.21,3.47a.84.84,0,0,1-1,.88c-1.62-.1-3.25-.19-4.87-.27a.83.83,0,0,0-1,.88l-.06,1a.86.86,0,0,0,.89,1c2.53.13,5.05.28,7.57.43a.83.83,0,0,1,.88,1l-.22,3.47a.82.82,0,0,1-1,.87q-6.52-.39-13-.7a.85.85,0,0,1-.89-1q.45-9.93.89-19.86a.85.85,0,0,1,1-.89Q204,130.39,210.72,130.79Z"></path></g><g id="Stars"><path class="cls-1" d="M159.24,24.09l3.62,7.33a.68.68,0,0,0,.53.38L171.48,33a.71.71,0,0,1,.39,1.2L166,39.88a.7.7,0,0,0-.21.62l1.38,8.06a.7.7,0,0,1-1,.74l-7.23-3.8a.68.68,0,0,0-.65,0l-7.24,3.8a.7.7,0,0,1-1-.74l1.38-8.06a.69.69,0,0,0-.2-.62l-5.85-5.7a.7.7,0,0,1,.39-1.2l8.09-1.18a.7.7,0,0,0,.53-.38L158,24.09A.7.7,0,0,1,159.24,24.09Z"></path><path class="cls-1" d="M190.73,32.55,192.94,37a.44.44,0,0,0,.32.24l5,.71a.44.44,0,0,1,.24.74l-3.58,3.49a.44.44,0,0,0-.13.38l.85,4.92A.44.44,0,0,1,195,48l-4.42-2.33a.41.41,0,0,0-.4,0L185.72,48a.44.44,0,0,1-.63-.46l.85-4.92a.41.41,0,0,0-.13-.38l-3.57-3.49a.43.43,0,0,1,.24-.74l4.94-.71a.44.44,0,0,0,.32-.24L190,32.55A.43.43,0,0,1,190.73,32.55Z"></path><path class="cls-1" d="M127.27,32.55,129.48,37a.48.48,0,0,0,.33.24l4.94.71a.44.44,0,0,1,.24.74l-3.58,3.49a.41.41,0,0,0-.12.38l.84,4.92a.43.43,0,0,1-.62.46l-4.42-2.33a.43.43,0,0,0-.41,0L122.26,48a.43.43,0,0,1-.62-.46l.84-4.92a.41.41,0,0,0-.12-.38l-3.58-3.49A.44.44,0,0,1,119,38l4.94-.71a.48.48,0,0,0,.33-.24l2.21-4.48A.43.43,0,0,1,127.27,32.55Z"></path></g></svg> 